<?xml version="1.0" standalone="no"?>
<!DOCTYPE svg PUBLIC "-//W3C//DTD SVG 20010904//EN"
 "http://www.w3.org/TR/2001/REC-SVG-20010904/DTD/svg10.dtd">
<svg version="1.0" xmlns="http://www.w3.org/2000/svg"
 width="179.000000pt" height="112.000000pt" viewBox="0 0 179.000000 112.000000"
 preserveAspectRatio="xMidYMid meet">

<g transform="translate(0.000000,112.000000) scale(0.100000,-0.100000)"
fill="#000000" stroke="none">
<path d="M832 1022 c-10 -10 -24 -16 -30 -14 -7 2 -12 -3 -12 -12 0 -10 -9
-16 -22 -16 -30 -1 -111 -38 -83 -39 11 0 39 4 63 8 31 6 42 5 42 -4 0 -7 7
-16 15 -19 19 -7 33 23 15 34 -9 5 -9 9 -1 14 12 8 44 66 36 66 -3 0 -13 -8
-23 -18z"/>
<path d="M1050 947 c0 -3 27 -24 60 -48 62 -45 69 -56 48 -77 -8 -8 -9 -15 -2
-22 15 -15 44 -1 44 21 0 15 7 19 39 19 22 0 43 5 46 10 4 6 -7 10 -24 10 -17
0 -31 5 -31 11 0 6 -8 8 -19 4 -11 -3 -22 -1 -26 4 -13 22 -135 82 -135 68z"/>
<path d="M704 800 c-27 -66 -52 -116 -55 -112 -4 4 -12 25 -19 47 l-13 40 -14
-47 c-7 -26 -17 -49 -22 -52 -4 -3 -18 13 -31 36 -16 29 -19 42 -11 48 9 5 9
15 -3 41 -8 19 -17 43 -21 54 -5 16 -10 9 -24 -33 -10 -29 -16 -63 -14 -76 3
-15 -4 -33 -20 -51 l-24 -29 -28 42 c-15 23 -29 41 -31 40 -1 -2 -21 -52 -44
-111 -40 -103 -43 -107 -60 -92 -17 15 -21 10 -74 -89 l-57 -106 -45 0 c-24 0
-44 -4 -44 -10 0 -5 18 -38 40 -72 22 -35 40 -69 40 -76 0 -7 -18 -41 -40 -76
-22 -35 -40 -66 -40 -70 0 -3 383 -6 851 -6 752 0 850 2 845 15 -3 8 -21 40
-41 70 -19 31 -35 60 -35 67 0 6 18 39 40 74 22 35 40 68 40 74 0 5 -22 10
-49 10 -45 0 -52 3 -81 38 -18 22 -29 44 -26 56 3 10 0 30 -6 45 -9 24 -14 51
-21 123 -6 55 -27 51 -31 -6 -4 -41 -21 -67 -41 -60 -7 3 -24 -1 -37 -10 -23
-15 -24 -14 -87 84 -35 55 -68 100 -74 100 -6 0 -38 -26 -70 -57 -47 -47 -59
-55 -67 -43 -14 21 -12 30 5 30 11 0 10 7 -6 35 -12 20 -19 44 -16 55 3 11 -2
38 -11 61 l-15 40 -13 -38 c-8 -21 -11 -46 -8 -55 3 -9 -4 -35 -16 -57 -17
-34 -18 -41 -5 -41 17 0 19 -9 5 -30 -7 -12 -13 -11 -34 9 -14 13 -23 27 -21
32 8 12 -18 99 -27 93 -4 -3 -8 -13 -8 -23 0 -23 -59 -79 -68 -65 -4 6 -41 66
-82 132 -41 67 -78 121 -81 122 -4 0 -28 -54 -55 -120z m146 -105 c40 -69 76
-125 81 -125 4 0 17 14 29 31 l22 30 24 -22 c13 -12 24 -26 24 -30 0 -10 -162
-119 -170 -114 -4 2 -17 42 -30 89 -14 48 -27 86 -31 86 -4 0 -11 -17 -17 -37
-8 -31 -10 -15 -11 90 -1 70 1 127 3 127 2 0 37 -56 76 -125z m-399 -122 l40
-72 -20 -38 -19 -38 -11 28 c-6 16 -11 32 -11 37 0 5 -5 21 -11 37 l-11 28
-13 -30 c-12 -27 -13 -22 -12 63 2 105 1 106 68 -15z m838 0 l-1 -98 -18 40
-19 40 -37 -82 c-21 -46 -40 -83 -44 -83 -4 0 -17 11 -29 24 l-22 23 -80 -24
c-79 -24 -104 -24 -81 -1 26 26 9 26 -58 -2 -38 -16 -70 -27 -70 -25 0 7 209
145 221 145 7 0 23 -10 36 -22 l23 -22 86 92 c47 51 88 92 90 92 2 0 4 -44 3
-97z m-819 78 c0 -17 -18 -21 -24 -6 -3 9 0 15 9 15 8 0 15 -4 15 -9z m94 -6
c-4 -8 -7 -15 -9 -15 -2 0 -5 7 -9 15 -3 9 0 15 9 15 9 0 12 -6 9 -15z m1
-160 c-3 -36 -5 -65 -3 -65 3 0 24 27 48 60 24 33 45 58 47 56 2 -2 -4 -34
-13 -71 -15 -58 -22 -70 -54 -91 -32 -22 -41 -23 -64 -13 -14 7 -26 17 -26 23
0 13 63 166 69 166 2 0 0 -29 -4 -65z m-271 -62 c-11 -37 -22 -54 -37 -59 -64
-22 -73 -10 -43 56 l25 53 3 -39 3 -39 30 42 c17 23 31 40 32 39 1 -1 -5 -25
-13 -53z m1180 -12 c29 -31 37 -26 30 21 -9 51 3 46 45 -22 27 -43 28 -50 13
-52 -94 -8 -116 1 -142 60 -11 25 -20 47 -20 49 0 7 54 -33 74 -56z m-1229
-182 c-6 -26 -4 -30 12 -27 13 3 17 11 15 31 -2 24 1 27 25 27 28 0 28 0 28
-70 0 -70 0 -70 -28 -70 -24 0 -27 3 -25 27 2 20 -2 28 -15 31 -16 3 -18 -1
-12 -27 6 -29 5 -31 -22 -31 l-28 0 0 70 0 70 28 0 c27 0 28 -2 22 -31z m161
19 c4 -6 2 -14 -4 -16 -15 -5 -16 -78 -2 -87 21 -13 9 -25 -26 -25 -32 0 -35
2 -28 23 10 28 9 43 0 85 -7 31 -6 32 23 32 16 0 33 -5 37 -12z m69 -15 c-5
-23 -4 -25 9 -14 8 7 14 18 13 24 -1 7 20 12 58 14 l60 2 0 -69 0 -69 -53 0
c-44 1 -55 5 -73 28 l-22 26 7 -27 c6 -25 4 -28 -21 -28 -28 0 -28 0 -28 70
l0 70 29 0 c26 0 28 -2 21 -27z m227 -5 l29 -33 -6 33 c-6 30 -5 32 20 32 23
0 26 -3 21 -22 -3 -13 -6 -44 -6 -70 0 -59 -14 -61 -57 -11 -29 34 -32 36 -33
16 0 -12 5 -25 10 -28 19 -12 10 -25 -17 -25 -28 0 -28 0 -26 67 1 38 2 69 3
71 0 1 8 2 17 2 9 0 29 -15 45 -32z m182 26 c19 -7 22 -44 3 -44 -7 0 -18 5
-24 11 -7 7 -19 9 -28 5 -23 -9 -17 -70 8 -74 15 -3 18 0 12 17 -5 18 -2 21
20 21 24 0 26 -3 23 -32 -3 -30 -6 -33 -41 -36 -50 -4 -77 19 -77 65 0 55 50
88 104 67z m196 -19 c0 -28 -9 -32 -29 -12 -11 10 -12 2 -9 -45 l5 -58 -34 0
c-32 0 -43 12 -23 25 12 7 14 85 2 85 -4 0 -13 -5 -19 -11 -14 -14 -27 5 -19
26 4 11 22 15 66 15 57 0 60 -1 60 -25z m120 -35 c13 -34 28 -59 34 -57 15 5
20 75 7 91 -6 7 -8 16 -4 19 11 12 88 8 101 -5 15 -15 16 -54 2 -63 -7 -4 -5
-14 5 -28 20 -29 19 -37 -5 -37 -11 0 -26 12 -35 28 l-16 27 6 -27 5 -27 -66
0 c-60 0 -66 2 -61 20 4 15 0 19 -20 19 -20 0 -23 -3 -14 -13 14 -17 4 -27
-26 -27 -29 0 -29 2 3 78 35 82 54 82 84 2z m225 -10 c0 -68 -1 -70 -25 -70
-24 0 -25 2 -25 70 0 68 1 70 25 70 24 0 25 -2 25 -70z m81 59 c3 -6 1 -15 -6
-19 -6 -4 -11 -16 -10 -26 4 -36 0 -79 -9 -93 -8 -12 -12 -13 -25 -2 -12 10
-13 17 -6 26 11 14 9 73 -4 93 -4 7 -4 17 -1 22 8 14 52 13 61 -1z m121 -54
c13 -32 23 -63 23 -67 0 -4 -14 -8 -31 -8 -26 0 -29 3 -24 20 5 16 2 20 -15
20 -17 0 -20 -4 -15 -20 5 -16 2 -20 -19 -20 -14 0 -27 3 -29 8 -2 4 8 35 24
70 36 80 54 80 86 -3z"/>
<path d="M522 217 l-21 -23 24 -29 c29 -37 48 -25 43 30 -4 47 -17 53 -46 22z"/>
<path d="M1290 215 c0 -8 5 -15 10 -15 6 0 10 7 10 15 0 8 -4 15 -10 15 -5 0
-10 -7 -10 -15z"/>
<path d="M1570 200 c0 -5 5 -10 11 -10 5 0 7 5 4 10 -3 6 -8 10 -11 10 -2 0
-4 -4 -4 -10z"/>
</g>
</svg>
